<?xml version="1.0" encoding="utf-8"?>
<!-- Generator: Adobe Illustrator 21.1.0, SVG Export Plug-In . SVG Version: 6.00 Build 0)  -->
<svg version="1.1" id="Capa_1" xmlns="http://www.w3.org/2000/svg" xmlns:xlink="http://www.w3.org/1999/xlink" x="0px" y="0px"
	 viewBox="0 0 100 27" style="enable-background:new 0 0 100 27;" xml:space="preserve">
<style type="text/css">
	.st0{fill:url(#SVGID_1_);}
</style>
<linearGradient id="SVGID_1_" gradientUnits="userSpaceOnUse" x1="46.7341" y1="33.0159" x2="52.2971" y2="1.4665">
	<stop  offset="0" style="stop-color:#FFFFFF"/>
	<stop  offset="1" style="stop-color:#FFFFFF"/>
</linearGradient>
<path class="st0" d="M22,19.4V6.7c-0.2-0.2-0.4-0.5-0.4-0.8c0-0.6,0.5-1.1,1.1-1.1c0.6,0,1.1,0.5,1.1,1.1c0,0.3-0.2,0.6-0.4,0.8
	v13.2c0,0.9-0.5,1.1-0.7,1.2c-0.1,0-0.2,0.1-0.4,0.1c-0.3,0-0.6-0.1-1-0.5L8.2,7.6v12.7c0.2,0.2,0.4,0.5,0.4,0.8
	c0,0.6-0.5,1.1-1.1,1.1c-0.6,0-1.1-0.5-1.1-1.1c0-0.3,0.2-0.6,0.4-0.8V7.1c0-0.9,0.5-1.1,0.7-1.2c0.2-0.1,0.7-0.2,1.3,0.4L22,19.4z
	 M25.3,1.4h-9.4C15.7,1.2,15.4,1,15.1,1C14.5,1,14,1.5,14,2.1c0,0.6,0.5,1.1,1.1,1.1c0.3,0,0.6-0.2,0.8-0.4h9.4
	c0.3,0,0.5,0.2,0.5,0.5v20.5c0,0.3-0.2,0.5-0.5,0.5h-5.3c-0.5,0-1.2-0.3-1.5-0.6l-6-6.2c0,0,0-0.1,0-0.1c0-0.6-0.5-1.1-1.1-1.1
	c-0.6,0-1.1,0.5-1.1,1.1c0,0.6,0.5,1.1,1.1,1.1c0,0,0.1,0,0.1,0l6,6.2c0.6,0.6,1.7,1.1,2.5,1.1h5.3c1,0,1.9-0.8,1.9-1.9V3.3
	C27.2,2.2,26.4,1.4,25.3,1.4z M4.9,25.6h9.4c0.2,0.2,0.5,0.4,0.8,0.4c0.6,0,1.1-0.5,1.1-1.1c0-0.6-0.5-1.1-1.1-1.1
	c-0.3,0-0.6,0.2-0.8,0.4H4.9c-0.3,0-0.5-0.2-0.5-0.5V3.3c0-0.3,0.2-0.5,0.5-0.5h5.3c0.5,0,1.2,0.3,1.5,0.6l6,6.2c0,0,0,0.1,0,0.1
	c0,0.6,0.5,1.1,1.1,1.1c0.6,0,1.1-0.5,1.1-1.1c0-0.6-0.5-1.1-1.1-1.1c0,0-0.1,0-0.1,0l-6-6.2C12,1.8,11,1.4,10.1,1.4H4.9
	C3.8,1.4,3,2.2,3,3.3v20.5C3,24.8,3.8,25.6,4.9,25.6z M72.7,21.1l0-0.2c0-0.1,0-0.1-0.1-0.1c-0.2,0-0.7-0.1-1-0.1
	c-0.7,0-1.1,0.3-1.1,1c0,0.6,0.3,0.8,1.1,1c0.5,0.1,0.7,0.2,0.7,0.5c0,0.4-0.2,0.6-0.6,0.6c-0.3,0-0.7-0.1-0.9-0.1
	c-0.1,0-0.1,0-0.1,0.1l0,0.2c0,0.1,0,0.1,0.1,0.1c0.2,0,0.7,0.1,1,0.1c0.7,0,1.1-0.3,1.1-1.1c0-0.6-0.3-0.8-1-1
	C71.2,22,71,21.9,71,21.6c0-0.3,0.2-0.4,0.6-0.4c0.2,0,0.7,0,0.9,0.1C72.6,21.2,72.6,21.2,72.7,21.1z M74.1,20.8v3.2
	c0,0.1,0.1,0.1,0.1,0.1h0.3c0.1,0,0.1-0.1,0.1-0.1v-3.2c0-0.1-0.1-0.1-0.1-0.1h-0.3C74.2,20.7,74.1,20.8,74.1,20.8z M78.2,21.1
	l0-0.2c0-0.1,0-0.1-0.1-0.1c-0.2,0-0.7-0.1-1-0.1c-0.7,0-1.1,0.3-1.1,1c0,0.6,0.3,0.8,1.1,1c0.5,0.1,0.7,0.2,0.7,0.5
	c0,0.4-0.2,0.6-0.6,0.6c-0.3,0-0.7-0.1-0.9-0.1c-0.1,0-0.1,0-0.1,0.1l0,0.2c0,0.1,0,0.1,0.1,0.1c0.2,0,0.7,0.1,1,0.1
	c0.7,0,1.1-0.3,1.1-1.1c0-0.6-0.3-0.8-1-1c-0.6-0.2-0.8-0.2-0.8-0.6c0-0.3,0.2-0.4,0.6-0.4c0.2,0,0.7,0,0.9,0.1
	C78.2,21.2,78.2,21.2,78.2,21.1z M79.4,20.8v0.3c0,0.1,0.1,0.1,0.1,0.1h0.8c0.1,0,0.1,0.1,0.1,0.1v2.7c0,0.1,0.1,0.1,0.1,0.1h0.3
	c0.1,0,0.1-0.1,0.1-0.1v-2.7c0-0.1,0.1-0.1,0.1-0.1h0.7c0.1,0,0.1-0.1,0.1-0.1v-0.3c0-0.1-0.1-0.1-0.1-0.1h-2.3
	C79.4,20.7,79.4,20.8,79.4,20.8z M83.1,20.8v3.2c0,0.1,0.1,0.1,0.1,0.1h1.9c0.1,0,0.1-0.1,0.1-0.1v-0.3c0-0.1-0.1-0.1-0.1-0.1h-1.4
	c-0.1,0-0.1-0.1-0.1-0.1v-0.8c0-0.1,0.1-0.1,0.1-0.1h1.1c0.1,0,0.1-0.1,0.1-0.1v-0.3c0-0.1-0.1-0.1-0.1-0.1h-1.1
	c-0.1,0-0.1-0.1-0.1-0.1v-0.7c0-0.1,0.1-0.1,0.1-0.1h1.4c0.1,0,0.1-0.1,0.1-0.1v-0.3c0-0.1-0.1-0.1-0.1-0.1h-1.9
	C83.1,20.7,83.1,20.8,83.1,20.8z M86.6,20.8v3.2c0,0.1,0.1,0.1,0.1,0.1H87c0.1,0,0.1-0.1,0.1-0.1v-2.6c0-0.1,0-0.1,0-0.1
	c0,0,0.1,0,0.1,0.1l0.7,2.5c0,0.1,0.1,0.1,0.1,0.1h0.4c0.1,0,0.1,0,0.1-0.1l0.7-2.5c0-0.1,0-0.1,0.1-0.1c0,0,0,0.1,0,0.1v2.6
	c0,0.1,0.1,0.1,0.1,0.1H90c0.1,0,0.1-0.1,0.1-0.1v-3.2c0-0.1-0.1-0.1-0.1-0.1h-0.7c-0.1,0-0.1,0-0.1,0.1l-0.7,2.5c0,0.1,0,0.1-0.1,0
	l-0.7-2.5c0-0.1-0.1-0.1-0.1-0.1h-0.7C86.7,20.7,86.6,20.8,86.6,20.8z M92.1,20.8l-0.8,3.2c0,0.1,0,0.1,0.1,0.1h0.3
	c0.1,0,0.1,0,0.1-0.1l0.1-0.5c0-0.1,0.1-0.1,0.1-0.1h1.1c0.1,0,0.1,0,0.1,0.1l0.1,0.5c0,0.1,0.1,0.1,0.1,0.1H94c0.1,0,0.1,0,0.1-0.1
	l-0.8-3.2c0-0.1-0.1-0.1-0.1-0.1h-0.9C92.2,20.7,92.2,20.8,92.1,20.8z M92.2,22.8l0.4-1.5c0-0.1,0.1-0.1,0.1-0.1h0
	c0.1,0,0.1,0,0.1,0.1l0.4,1.5c0,0.1,0,0.1-0.1,0.1h-0.9C92.2,22.9,92.2,22.9,92.2,22.8z M97.3,21.1l0-0.2c0-0.1,0-0.1-0.1-0.1
	c-0.2,0-0.7-0.1-1-0.1c-0.7,0-1.1,0.3-1.1,1c0,0.6,0.3,0.8,1.1,1c0.5,0.1,0.7,0.2,0.7,0.5c0,0.4-0.2,0.6-0.6,0.6
	c-0.3,0-0.7-0.1-0.9-0.1c-0.1,0-0.1,0-0.1,0.1l0,0.2c0,0.1,0,0.1,0.1,0.1c0.2,0,0.7,0.1,1,0.1c0.7,0,1.1-0.3,1.1-1.1
	c0-0.6-0.3-0.8-1-1c-0.6-0.2-0.8-0.2-0.8-0.6c0-0.3,0.2-0.4,0.6-0.4c0.2,0,0.7,0,0.9,0.1C97.3,21.2,97.3,21.2,97.3,21.1z M46.6,18.1
	c0.2,0,0.3-0.1,0.3-0.3V9.2c0-0.2-0.1-0.3-0.3-0.3h-1.2c-0.2,0-0.3,0.1-0.3,0.3v7.5l-4.8-7.3c-0.2-0.3-0.5-0.5-0.7-0.5h-2
	c-0.2,0-0.3,0.1-0.3,0.3v8.6c0,0.2,0.2,0.3,0.3,0.3h1.2c0.2,0,0.3-0.2,0.3-0.3v-7l4.4,6.8c0.2,0.3,0.5,0.5,0.7,0.5H46.6z M81.1,18.1
	c0.3,0,0.5-0.2,0.7-0.5l4-8.6c0,0,0,0,0,0c0,0-0.1-0.1-0.2-0.1h-1.5c-0.2,0-0.4,0.2-0.5,0.5l-3,6.6l-3-6.6c-0.1-0.2-0.3-0.5-0.5-0.5
	h-1.5c-0.1,0-0.1,0-0.2,0.1c0,0,0,0,0,0l4,8.6c0.2,0.4,0.4,0.5,0.7,0.5H81.1z M97.5,13.5c0-3.3-1.7-4.8-5.2-4.8S87,10.2,87,13.5
	c0,3.3,1.7,4.8,5.2,4.8S97.5,16.8,97.5,13.5z M95.5,13.5c0,2.4-1.1,3.3-3.3,3.3S89,15.9,89,13.5c0-2.4,1.1-3.3,3.3-3.3
	S95.5,11.1,95.5,13.5z M72.9,18.1c0.2,0,0.3-0.1,0.3-0.3V9.2c0-0.2-0.1-0.3-0.3-0.3h-1.3c-0.2,0-0.3,0.1-0.3,0.3v8.6
	c0,0.2,0.1,0.3,0.3,0.3H72.9z M65,18.1c0.2,0,0.3-0.1,0.3-0.3v-7.3h3.4c0.2,0,0.3-0.1,0.3-0.3v-1c0-0.2-0.1-0.3-0.3-0.3H60
	c-0.2,0-0.3,0.1-0.3,0.3v1c0,0.2,0.1,0.3,0.3,0.3h3.4v7.3c0,0.2,0.1,0.3,0.3,0.3H65z M59.5,18.1c0.1,0,0.1,0,0.2-0.1c0,0,0,0,0,0
	l-4-8.6C55.5,9,55.3,8.9,55,8.9h-1c-0.3,0-0.5,0.2-0.7,0.5l-4,8.6c0,0,0,0,0,0c0,0,0.1,0.1,0.2,0.1H51c0.2,0,0.4-0.2,0.5-0.5l3-6.6
	l3,6.6c0.1,0.2,0.3,0.5,0.5,0.5H59.5z"/>
</svg>
